Coordinates
version=1
nRows=23
nColumns=23
inDegrees=yes

Units are S.I. units (second, meters, Newtons, ...)
Angles are in degrees.

endheader
time	pelvis_tilt	pelvis_list	pelvis_rotation	pelvis_tx	pelvis_ty	pelvis_tz	hip_flexion_r	hip_adduction_r	hip_rotation_r	knee_angle_r	knee_angle_r_beta	ankle_angle_r	subtalar_angle_r	mtp_angle_r	hip_flexion_l	hip_adduction_l	hip_rotation_l	knee_angle_l	knee_angle_l_beta	ankle_angle_l	subtalar_angle_l	mtp_angle_l
    123.00444400	     -6.94831248	     -0.81493824	      0.82763137	      0.05998043	      1.24929366	      0.24047013	     51.92040542	     -5.24377330	      0.99691350	     95.21995979	      1.66190181	     -2.56381949	      0.00000000	      0.00000000	     55.18456028	     -4.83933652	     -1.43720408	     58.62548081	      1.02320767	      5.25478067	      0.00000000	      0.00000000
    123.01333300	     -7.04939738	     -1.65421773	      0.03977398	      0.06010483	      1.24914447	      0.23989002	     53.64517808	     -4.23906871	      1.05081235	     97.81700820	      1.70722886	     -1.80154693	      0.00000000	      0.00000000	     53.19476326	     -6.02976494	     -1.88339567	     55.20043410	      0.96342932	      3.75384888	      0.00000000	      0.00000000
    123.02222200	     -7.21413231	     -2.46869551	     -0.65811130	      0.06027066	      1.24909281	      0.23930583	     55.41723683	     -3.31981112	      1.01456707	    100.29303983	      1.75044376	     -0.85724193	      0.00000000	      0.00000000	     51.23854720	     -7.13796415	     -2.39456609	     51.80223048	      0.90411948	      2.11943448	      0.00000000	      0.00000000
    123.03111100	     -7.42393682	     -3.27132965	     -1.30395948	      0.06040189	      1.24902238	      0.23876982	     57.23383396	     -2.44048882	      0.91692967	    102.63393871	      1.79130015	      0.27324167	      0.00000000	      0.00000000	     49.34565713	     -8.21463287	     -2.96648751	     48.53188991	      0.84704127	      0.35061982	      0.00000000	      0.00000000
    123.04000000	     -7.66803911	     -4.01245356	     -1.86564862	      0.06060798	      1.24896689	      0.23825565	     59.06498845	     -1.66787575	      0.78057874	    104.83868562	      1.82978025	      1.54388451	      0.00000000	      0.00000000	     47.49216154	     -9.18509647	     -3.57245488	     45.38638117	      0.79214179	     -1.47707457	      0.00000000	      0.00000000
    123.04888900	     -7.93105611	     -4.73516326	     -2.37801405	      0.06085110	      1.24891682	      0.23776386	     60.89779252	     -0.94699880	      0.59074590	    106.86022332	      1.86506274	      2.92673161	      0.00000000	      0.00000000	     45.70197623	    -10.11506221	     -4.22218867	     42.44330100	      0.74077535	     -3.29365090	      0.00000000	      0.00000000
    123.05777800	     -8.17483883	     -5.37415383	     -2.80307602	      0.06112755	      1.24884743	      0.23720842	     62.69871527	     -0.36107049	      0.39214615	    108.70291112	      1.89722371	      4.34777085	      0.00000000	      0.00000000	     43.94058376	    -10.91194487	     -4.89635884	     39.70659711	      0.69301085	     -5.05851278	      0.00000000	      0.00000000
    123.06666700	     -8.38272265	     -5.93615281	     -3.16633317	      0.06139344	      1.24874952	      0.23663991	     64.45620448	      0.12789501	      0.20981962	    110.34313615	      1.92585103	      5.72095819	      0.00000000	      0.00000000	     42.22287945	    -11.59433995	     -5.54223157	     37.25070093	      0.65014738	     -6.69362583	      0.00000000	      0.00000000
    123.07555600	     -8.64714230	     -6.46755026	     -3.51402131	      0.06177185	      1.24853531	      0.23619303	     66.24785539	      0.59787123	     -0.00979729	    111.76431544	      1.95065529	      7.14593343	      0.00000000	      0.00000000	     40.67622933	    -12.26205649	     -6.23284663	     35.15973185	      0.61365308	     -8.12960491	      0.00000000	      0.00000000
    123.08444400	     -8.85073574	     -6.93229770	     -3.76845874	      0.06201998	      1.24827508	      0.23556617	     67.96975150	      0.94547403	     -0.18850242	    112.90888359	      1.97063177	      8.28208842	      0.00000000	      0.00000000	     39.21624718	    -12.78304792	     -6.70127029	     33.46382813	      0.58405398	     -9.16448230	      0.00000000	      0.00000000
    123.09333300	     -9.00254334	     -7.27190745	     -3.96107736	      0.06224084	      1.24802472	      0.23497849	     69.62998592	      1.18163645	     -0.30432224	    113.82519087	      1.98662435	      9.30969069	      0.00000000	      0.00000000	     37.83504271	    -13.16107878	     -7.16293996	     32.12787679	      0.56073723	    -10.05745108	      0.00000000	      0.00000000
    123.10222200	     -9.18130198	     -7.57241575	     -4.12132871	      0.06245487	      1.24773032	      0.23444456	     71.27777090	      1.38577285	     -0.43192334	    114.46744155	      1.99783374	     10.16587353	      0.00000000	      0.00000000	     36.65974591	    -13.49280237	     -7.49724357	     31.25619556	      0.54552352	    -10.53303323	      0.00000000	      0.00000000
    123.11111100	     -9.32428670	     -7.77328234	     -4.22477443	      0.06254100	      1.24747022	      0.23395498	     72.85846845	      1.51714198	     -0.50298038	    114.84961875	      2.00450399	     10.84587912	      0.00000000	      0.00000000	     35.62935648	    -13.70707699	     -7.71997967	     30.80357098	      0.53762373	    -10.75658152	      0.00000000	      0.00000000
    123.12000000	     -9.43695730	     -7.92237122	     -4.27116296	      0.06262224	      1.24735255	      0.23346005	     74.31416981	      1.58655551	     -0.56501557	    114.94004447	      2.00608222	     11.28750550	      0.00000000	      0.00000000	     34.74300465	    -13.84424698	     -7.78226026	     30.75405273	      0.53675948	    -10.69023187	      0.00000000	      0.00000000
    123.12888900	     -9.30858252	     -8.04553592	     -4.15492271	      0.06247875	      1.24768400	      0.23279367	     75.41312690	      1.50035342	     -0.69654851	    114.73410873	      2.00248796	     11.34835921	      0.00000000	      0.00000000	     33.80121684	    -13.86765833	     -7.65250043	     30.99022122	      0.54088140	    -10.70733712	      0.00000000	      0.00000000
    123.13777800	     -9.70941092	     -7.95666248	     -4.23987327	      0.06242427	      1.24713733	      0.23271991	     77.03828430	      1.59653679	     -0.53180959	    114.36791427	      1.99609666	     11.83536773	      0.00000000	      0.00000000	     33.65380248	    -13.83788048	     -7.47987746	     31.98402286	      0.55822651	     -9.78328025	      0.00000000	      0.00000000
    123.14666700	     -9.82408484	     -7.93624639	     -4.09695777	      0.06210623	      1.24716572	      0.23233525	     78.16488566	      1.49828929	     -0.55720479	    113.65910719	      1.98372565	     11.83760796	      0.00000000	      0.00000000	     33.45133660	    -13.74853986	     -7.06139567	     33.26310254	      0.58055066	     -9.01262435	      0.00000000	      0.00000000
    123.15555600	     -9.76971293	     -7.76967216	     -3.96589715	      0.06168079	      1.24752098	      0.23216125	     78.97459484	      1.42587699	     -0.44039926	    112.74520534	      1.96777505	     11.84265158	      0.00000000	      0.00000000	     33.20067462	    -13.55059389	     -6.69965538	     34.77668157	      0.60696760	     -8.55571764	      0.00000000	      0.00000000
    123.16444400	    -10.04411000	     -7.76653779	     -3.67838818	      0.06117779	      1.24742290	      0.23175620	     79.89061072	      1.22940886	     -0.55684583	    111.50491507	      1.94612790	     11.71965528	      0.00000000	      0.00000000	     33.66572578	    -13.38961898	     -5.77907583	     36.96172483	      0.64510380	     -7.06448894	      0.00000000	      0.00000000
    123.17333300	    -10.13202396	     -7.63951780	     -3.40075063	      0.06059956	      1.24760937	      0.23152914	     80.42428157	      1.05643255	     -0.54954348	    110.06970175	      1.92107870	     11.64257939	      0.00000000	      0.00000000	     34.06164177	    -13.13814460	     -4.98130020	     39.35122801	      0.68680849	     -5.99636558	      0.00000000	      0.00000000
    123.18222200	    -10.20443876	     -7.49637777	     -3.09270057	      0.05999328	      1.24782481	      0.23133594	     80.71244003	      0.87471556	     -0.53630318	    108.40382498	      1.89200367	     11.59652060	      0.00000000	      0.00000000	     34.62250818	    -12.85022549	     -4.11644933	     42.05160155	      0.73393890	     -4.85777767	      0.00000000	      0.00000000
    123.19111100	    -10.20174800	     -7.33015187	     -2.75932690	      0.05933660	      1.24806889	      0.23118544	     80.69433457	      0.68540809	     -0.51261298	    106.52284077	      1.85917430	     11.58568489	      0.00000000	      0.00000000	     35.26600989	    -12.52362712	     -3.23215301	     45.02041745	      0.78575452	     -3.71723505	      0.00000000	      0.00000000
    123.20000000	    -10.22689163	     -7.13899340	     -2.43124807	      0.05878326	      1.24821474	      0.23114097	     80.47264566	      0.51405920	     -0.46498708	    104.44109346	      1.82284096	     11.63802174	      0.00000000	      0.00000000	     36.06519922	    -12.17386390	     -2.36197320	     48.21133510	      0.84144653	     -2.56702509	      0.00000000	      0.00000000
